# xmcd
#
# Track frame offsets:
#	150
#	14052
#	31962
#
# Disc length: 600 seconds
#
# Revision: 0
# Processed by: cddbd v1.5.2PL0 Copyright (c) Steve Scherf et al.
# Submitted via: audiograbber 1.83.01
#
DISCID=1e025603
DTITLE=Raye, Collin - That's my story
DYEAR=1994
DGENRE=Country
TTITLE0=That's my story
TTITLE1=Little Rock
TTITLE2=To the border and beyond
EXTD=
EXTT0=
EXTT1=
EXTT2=
PLAYORDER=
